<svg xmlns="http://www.w3.org/2000/svg" width="1440" height="980" viewBox="0 0 1440 980" role="img" aria-labelledby="title desc">
  <title id="title">FEATURE-005 코멘트와 평가 수정 상태 목업</title>
  <desc id="desc">정식 저장된 기보 상세 화면에서 중앙 보드와 우측 상세 패널을 함께 보여주는 중간 충실도 SVG 목업이다. 우측 패널 상단의 정식 수순 목록은 읽기 전용으로 유지하고, 하단의 코멘트와 평가 탭 영역만 수정 가능하며 변경 내용이 즉시 자동 저장된다는 상태 단서를 표현한다.</desc>

  <defs>
    <style>
      .page { fill: #f4f6f8; }
      .surface { fill: #ffffff; }
      .topbar { fill: #fbfcfd; }
      .sidebar { fill: #17202a; }
      .sidebar-soft { fill: #22303d; }
      .sidebar-active { fill: #2f5f73; }
      .panel { fill: #ffffff; stroke: #d4dae2; stroke-width: 1.2; }
      .subpanel { fill: #f8fafc; stroke: #dbe1e8; stroke-width: 1; }
      .readonly-panel { fill: #f1f4f7; stroke: #cfd7e2; stroke-width: 1; }
      .editable-panel { fill: #f8fafc; stroke: #dbe1e8; stroke-width: 1; }
      .field-focus { fill: #ffffff; stroke: #2f5f73; stroke-width: 1.4; }
      .line { stroke: #dbe1e8; stroke-width: 1; }
      .text { fill: #15171a; font-family: Arial, 'Noto Sans KR', sans-serif; }
      .muted { fill: #687381; font-family: Arial, 'Noto Sans KR', sans-serif; }
      .inverse { fill: #f8fafc; font-family: Arial, 'Noto Sans KR', sans-serif; }
      .inverse-muted { fill: #aeb8c4; font-family: Arial, 'Noto Sans KR', sans-serif; }
      .button-primary { fill: #2f5f73; }
      .button-secondary { fill: #ffffff; stroke: #bcc7d4; stroke-width: 1; }
      .button-quiet { fill: #eef2f6; stroke: #d7dde5; stroke-width: 1; }
      .button-disabled { fill: #eef2f6; stroke: #d7dde5; stroke-width: 1; opacity: 0.76; }
      .badge { fill: #eef4f7; stroke: #c8d6df; stroke-width: 1; }
      .badge-ok { fill: #e8f5ee; stroke: #9fcbb2; stroke-width: 1; }
      .badge-edit { fill: #fff7e6; stroke: #f0c36a; stroke-width: 1; }
      .badge-readonly { fill: #eef2f6; stroke: #cfd7e2; stroke-width: 1; }
      .light-square { fill: #eef0df; }
      .dark-square { fill: #8ca07c; }
      .last-move { fill: #f5c542; opacity: 0.46; }
      .selected-square { fill: #7dd3fc; opacity: 0.34; }
      .selected { fill: none; stroke: #0f766e; stroke-width: 2.2; opacity: 0.62; }
      .move-cell { fill: #ffffff; stroke: #dbe1e8; stroke-width: 1; }
      .move-cell-muted { fill: #f8fafc; stroke: #e2e7ee; stroke-width: 1; }
      .move-cell-active { fill: #dff0ea; stroke: #72a897; stroke-width: 1.2; }
      .chip { fill: #ffffff; stroke: #bcc7d4; stroke-width: 1; }
      .chip-active { fill: #dff0ea; stroke: #72a897; stroke-width: 1.2; }
      .piece-light { fill: #fbfbfb; stroke: #20242a; stroke-width: 1.4; }
      .piece-dark { fill: #20242a; stroke: #20242a; stroke-width: 1.4; }
      .piece-label-light { fill: #20242a; font-family: Georgia, serif; font-weight: 700; }
      .piece-label-dark { fill: #ffffff; font-family: Georgia, serif; font-weight: 700; }
    </style>
    <filter id="soft-shadow" x="-8%" y="-8%" width="116%" height="116%">
      <feDropShadow dx="0" dy="10" stdDeviation="14" flood-color="#1f2937" flood-opacity="0.11"/>
    </filter>
    <pattern id="board-pattern" width="160" height="160" patternUnits="userSpaceOnUse">
      <rect width="160" height="160" class="light-square"/>
      <rect x="80" y="0" width="80" height="80" class="dark-square"/>
      <rect x="0" y="80" width="80" height="80" class="dark-square"/>
    </pattern>
  </defs>

  <rect width="1440" height="980" class="page"/>
  <rect x="40" y="36" width="1360" height="900" rx="12" class="surface" filter="url(#soft-shadow)"/>
  <rect x="40" y="36" width="88" height="900" rx="12" class="sidebar"/>
  <rect x="128" y="36" width="1272" height="64" class="topbar"/>
  <line x1="128" y1="100" x2="1400" y2="100" class="line"/>
  <line x1="128" y1="36" x2="128" y2="936" stroke="#293746" stroke-width="1"/>

  <text x="84" y="78" text-anchor="middle" class="inverse" font-size="18" font-weight="700">CDB</text>
  <rect x="58" y="126" width="52" height="52" rx="8" class="sidebar-soft"/>
  <text x="84" y="158" text-anchor="middle" class="inverse-muted" font-size="18" font-weight="700">＋</text>
  <text x="84" y="194" text-anchor="middle" class="inverse-muted" font-size="11">입력</text>
  <rect x="58" y="226" width="52" height="52" rx="8" class="sidebar-active"/>
  <text x="84" y="258" text-anchor="middle" class="inverse" font-size="17">▤</text>
  <text x="84" y="294" text-anchor="middle" class="inverse" font-size="11" font-weight="700">기보</text>
  <rect x="58" y="326" width="52" height="52" rx="8" class="sidebar-soft"/>
  <text x="84" y="358" text-anchor="middle" class="inverse-muted" font-size="17">◎</text>
  <text x="84" y="394" text-anchor="middle" class="inverse-muted" font-size="11">분석</text>
  <rect x="58" y="816" width="52" height="52" rx="8" class="sidebar-soft"/>
  <text x="84" y="848" text-anchor="middle" class="inverse-muted" font-size="17">⚙</text>
  <text x="84" y="884" text-anchor="middle" class="inverse-muted" font-size="11">설정</text>

  <text x="164" y="69" class="text" font-size="20" font-weight="700">정식 기보 상세</text>
  <text x="304" y="69" class="muted" font-size="13">2026-04-24 · 1/2-1/2 · 선택 수 12. Bxe6!!</text>
  <rect x="710" y="53" width="112" height="30" rx="15" class="badge-ok"/>
  <circle cx="728" cy="68" r="4" fill="#2d8b57"/>
  <text x="740" y="73" class="text" font-size="12" font-weight="700">자동 저장됨</text>
  <rect x="834" y="53" width="130" height="30" rx="15" class="badge"/>
  <text x="852" y="73" class="muted" font-size="12">마지막 방금 전</text>
  <rect x="976" y="53" width="168" height="30" rx="15" class="badge-readonly"/>
  <text x="994" y="73" class="muted" font-size="12">수순은 읽기 전용</text>
  <rect x="1160" y="50" width="78" height="36" rx="7" class="button-secondary"/>
  <text x="1184" y="73" class="text" font-size="13" font-weight="700">목록</text>
  <rect x="1250" y="50" width="58" height="36" rx="7" class="button-disabled"/>
  <text x="1267" y="73" class="muted" font-size="13" font-weight="700">삭제</text>
  <rect x="1320" y="50" width="64" height="36" rx="7" class="button-primary"/>
  <text x="1339" y="73" class="inverse" font-size="13" font-weight="700">닫기</text>

  <rect x="160" y="128" width="880" height="760" rx="10" fill="#f8fafc" stroke="#d4dae2" stroke-width="1.2"/>
  <text x="190" y="168" class="text" font-size="17" font-weight="700">보드</text>
  <text x="246" y="168" class="muted" font-size="13">정식 수순을 재생하며 선택한 수의 코멘트와 평가만 편집하는 상태</text>
  <g transform="translate(270 190)">
    <rect x="0" y="0" width="640" height="640" rx="6" fill="#ffffff" stroke="#b9c3cf" stroke-width="2"/>
    <rect x="0" y="0" width="640" height="640" fill="url(#board-pattern)"/>
    <rect x="400" y="400" width="80" height="80" class="last-move"/>
    <rect x="320" y="160" width="80" height="80" class="last-move"/>
    <rect x="320" y="160" width="80" height="80" class="selected-square"/>
    <rect x="322" y="162" width="76" height="76" rx="3" class="selected"/>
    <g class="muted" font-size="11">
      <text x="10" y="22">8</text><text x="10" y="102">7</text><text x="10" y="182">6</text><text x="10" y="262">5</text>
      <text x="10" y="342">4</text><text x="10" y="422">3</text><text x="10" y="502">2</text><text x="10" y="582">1</text>
      <text x="38" y="628">a</text><text x="118" y="628">b</text><text x="198" y="628">c</text><text x="278" y="628">d</text>
      <text x="358" y="628">e</text><text x="438" y="628">f</text><text x="518" y="628">g</text><text x="598" y="628">h</text>
    </g>
    <g font-size="28" text-anchor="middle" dominant-baseline="middle" opacity="0.88">
      <circle cx="40" cy="40" r="26" class="piece-dark"/><text x="40" y="42" class="piece-label-dark">R</text>
      <circle cx="360" cy="40" r="26" class="piece-dark"/><text x="360" y="42" class="piece-label-dark">K</text>
      <circle cx="600" cy="40" r="26" class="piece-dark"/><text x="600" y="42" class="piece-label-dark">R</text>
      <circle cx="360" cy="200" r="28" class="piece-light"/><text x="360" y="202" class="piece-label-light">B</text>
      <circle cx="440" cy="440" r="28" class="piece-light"/><text x="440" y="442" class="piece-label-light">B</text>
      <circle cx="360" cy="600" r="26" class="piece-light"/><text x="360" y="602" class="piece-label-light">K</text>
      <circle cx="600" cy="600" r="26" class="piece-light"/><text x="600" y="602" class="piece-label-light">R</text>
    </g>
  </g>

  <rect x="270" y="836" width="640" height="52" rx="7" fill="#ffffff" stroke="#dbe1e8"/>
  <text x="292" y="854" class="muted" font-size="11" font-weight="700">상태 메모</text>
  <rect x="292" y="862" width="14" height="10" class="last-move"/>
  <text x="312" y="872" class="muted" font-size="10">현재 수 하이라이트</text>
  <rect x="430" y="862" width="14" height="10" class="selected-square"/>
  <text x="450" y="872" class="muted" font-size="10">선택 수</text>
  <rect x="532" y="862" width="14" height="10" class="readonly-panel"/>
  <text x="552" y="872" class="muted" font-size="10">수순 읽기 전용</text>
  <rect x="680" y="862" width="14" height="10" class="editable-panel"/>
  <text x="700" y="872" class="muted" font-size="10">코멘트/평가 수정 가능</text>

  <rect x="1064" y="128" width="308" height="760" rx="10" class="panel"/>
  <text x="1090" y="166" class="text" font-size="18" font-weight="700">기보 상세 패널</text>
  <text x="1090" y="190" class="muted" font-size="12">FEATURE-003과 같은 수순 목록 + 메타데이터 탭 구조</text>

  <rect x="1090" y="214" width="256" height="342" rx="8" class="subpanel"/>
  <text x="1110" y="244" class="text" font-size="15" font-weight="700">수순 목록</text>
  <text x="1216" y="244" class="muted" font-size="12">SAN</text>
  <rect x="1248" y="228" width="72" height="24" rx="12" class="badge-readonly"/>
  <text x="1261" y="245" class="muted" font-size="11" font-weight="700">읽기 전용</text>
  <line x1="1110" y1="262" x2="1326" y2="262" class="line"/>
  <text x="1122" y="286" class="muted" font-size="11">#</text>
  <text x="1164" y="286" class="muted" font-size="11">백</text>
  <text x="1248" y="286" class="muted" font-size="11">흑</text>
  <line x1="1230" y1="296" x2="1230" y2="466" class="line"/>
  <rect x="1110" y="306" width="216" height="36" rx="6" class="move-cell-muted"/>
  <text x="1124" y="329" class="muted" font-size="13" font-weight="700">10.</text>
  <text x="1164" y="329" class="muted" font-size="13">O-O</text>
  <text x="1248" y="329" class="muted" font-size="13">d6</text>
  <rect x="1110" y="350" width="216" height="36" rx="6" class="move-cell-muted"/>
  <text x="1124" y="373" class="muted" font-size="13" font-weight="700">11.</text>
  <text x="1164" y="373" class="muted" font-size="13">Re1</text>
  <text x="1248" y="373" class="muted" font-size="13">Bb7</text>
  <rect x="1110" y="394" width="216" height="42" rx="6" class="move-cell"/>
  <text x="1124" y="421" class="text" font-size="13" font-weight="700">12.</text>
  <rect x="1156" y="402" width="76" height="26" rx="5" class="move-cell-active"/>
  <text x="1164" y="420" class="text" font-size="13" font-weight="700">Bxe6!!</text>
  <text x="1248" y="420" class="text" font-size="13" font-weight="700">fxe6</text>
  <rect x="1110" y="444" width="216" height="36" rx="6" class="move-cell-muted"/>
  <text x="1124" y="467" class="muted" font-size="13" font-weight="700">13.</text>
  <text x="1164" y="467" class="muted" font-size="13">Rc1</text>
  <text x="1248" y="467" class="muted" font-size="13">Rc8</text>
  <rect x="1110" y="494" width="216" height="24" rx="12" class="badge-readonly"/>
  <text x="1124" y="511" class="muted" font-size="11">수순 추가, 삭제, SAN 수정 컨트롤 없음</text>

  <rect x="1090" y="580" width="256" height="282" rx="8" class="editable-panel"/>
  <g aria-label="메타데이터 탭">
    <rect x="1110" y="598" width="44" height="28" rx="7" fill="#ffffff" stroke="#bcc7d4"/>
    <text x="1121" y="617" class="muted" font-size="12" font-weight="700">SAN</text>
    <rect x="1158" y="598" width="62" height="28" rx="7" fill="#2f5f73"/>
    <text x="1172" y="617" fill="#ffffff" font-family="Arial, 'Noto Sans KR', sans-serif" font-size="12" font-weight="700">코멘트</text>
    <rect x="1224" y="598" width="48" height="28" rx="7" fill="#ffffff" stroke="#bcc7d4"/>
    <text x="1236" y="617" class="muted" font-size="12" font-weight="700">평가</text>
    <rect x="1276" y="598" width="58" height="28" rx="7" fill="#ffffff" stroke="#bcc7d4"/>
    <text x="1283" y="617" class="muted" font-size="11" font-weight="700">기보 정보</text>
  </g>
  <text x="1110" y="654" class="text" font-size="15" font-weight="700">선택 수 코멘트</text>
  <text x="1210" y="654" class="muted" font-size="12">12. Bxe6!!</text>
  <rect x="1110" y="674" width="216" height="74" rx="7" class="field-focus"/>
  <text x="1124" y="700" class="text" font-size="12">킹사이드 압박을 열어 둔 핵심 수.</text>
  <text x="1124" y="722" class="text" font-size="12">후속 ...fxe6 이후 e6 약점이 남는다.</text>
  <line x1="1124" y1="738" x2="1294" y2="738" stroke="#2f5f73" stroke-width="1" opacity="0.38"/>
  <rect x="1110" y="762" width="118" height="26" rx="13" class="badge-ok"/>
  <circle cx="1126" cy="775" r="4" fill="#2d8b57"/>
  <text x="1138" y="779" class="text" font-size="11" font-weight="700">자동 저장됨</text>

  <text x="1110" y="818" class="text" font-size="15" font-weight="700">평가</text>
  <rect x="1160" y="800" width="46" height="32" rx="8" class="chip-active"/><text x="1183" y="821" text-anchor="middle" class="text" font-size="14" font-weight="700">!!</text>
  <rect x="1214" y="800" width="42" height="32" rx="8" class="chip"/><text x="1235" y="821" text-anchor="middle" class="text" font-size="14" font-weight="700">?</text>
  <rect x="1264" y="800" width="48" height="32" rx="8" class="chip"/><text x="1288" y="821" text-anchor="middle" class="text" font-size="14" font-weight="700">!?</text>
  <text x="1110" y="878" class="muted" font-size="11">구현 후보 메모: FEATURE-003 탭 순서와 위치를 유지한다. FEATURE-005 상세에서는 정식 수순을 잠그고 같은 메타데이터 탭 안에서 코멘트/평가만 즉시 자동 저장한다.</text>
</svg>
